<?xml version="1.0" encoding="UTF-8"?>
<!-- Created with Inkscape (http://www.inkscape.org/) -->
<svg width="100%"  version="1.1" viewBox="0 0 7512 4965" xmlns="http://www.w3.org/2000/svg" xmlns:xlink="http://www.w3.org/1999/xlink">
 <image width="100%"  preserveAspectRatio="none" xlink:href="perro front.jpg"/>
 <a href="#"><path id="craneo" onclick="console.log('algo')"  d="m1226.4 1529.3c6.7521-5.6362 10.861-8.0318 15.189-13.019 19.798-13.716 40.766-31.955 49.431-38.582 7.4028-8.2476 18.672-17.178 26.445-24.817 13.504-15.742 27.889-35.706 36.48-51.127 2.705-4.2645 6.6564-8.182 8.4081-12.205 0.8662-1.9895 3.6778-5.286 4.6109-7.3232 2.6423-5.7685 8.0976-17.862 11.934-21.698 7.6719-7.6719 14.213-19.638 21.97-27.394 9.1093-9.1092 14.039-19.463 24.139-29.564 7.9669-7.9669 16.707-16.966 22.841-26.167 1.1347-1.7022 3.6517-3.8415 4.915-5.3466 5.153-6.1397 4.5665-5.4784 11.352-12.264 7.4554-5.0463 15.446-10.844 25.631-17.586 11.208-4.6381 19.92-11.2 29.358-23.868 2.8584-4.2876 8.2329-7.7523 10.417-12.12 4.0633-13.238 6.0761-14.992 6.6899-25.786v-10.849c0-3.6734-0.6941-8.3301-2.3015-11.545-2.8608-5.7216-15.366-4.5966-20.739-2.8053-10.184 14.12-28.949 42.818-46.657 6.7125-6.4995-5.551-4.3434-8.3108-4.8548-8.8222-3.9227-3.9228-2.8455-10.862-4.1006-14.627-3.1981-13.551-2.458-11.917-3.8003-23.159-0.9704-1.9408-1.4235-4.0674-2.1097-6.1259-0.8568-2.5703-0.6866-4.4532-1.9066-6.8931-0.6913-1.3825-3.1406-25.187-1.7862-26.542 2.1698-2.1698 3.3093-5.3701 5.4791-7.5399 1.6164-1.6164 5.6069-5.919 6.8329-7.1451 5.1444-5.1444 9.793 6.5671 10.849 8.6794 1.6173 3.2346 3.629 3.1851 6.1862 5.7423 2.2872 2.2872 3.3949 4.0907 5.6821 6.3779 1.5773 1.5772 6.4884 0.1728 7.2052-1.9781 0.4574-1.3723 5.8739-9.9502 6.5208-11.244 19.416-48.478 19.21-8.7173 62.508-12.289 4.6891-0.609 34.507-5.1637 39.786-7.8032 9.2802-4.64 19.297-15.476 26.373-18.306 11.294-6.0769 26.133-18.671 24.744-29.61 0.7232-2.1698 3.5864-6.5268 3.7041-8.8109 0.6299-12.219-6.1867-15.179-3.6552-25.305 4.1916-15.821 5.0634-9.9734 7.9234-22.048 0.9612-2.8836 2.7117-28.971 1.7261-30.942-0.1344-0.26875 1.1034-4.5171-3.0573-10.669-2.8952-4.2804-5.3052-8.8062-10.093-13.594-1.3331-1.3331 7.218-20.996 5.7649-23.902-5.9751-11.95-1.122-4.0991-12.346-15.155-9.3105-9.1711-11.85-11.801-19.254-21.315-10.15-15.018-18.456-39.29-21.698-49.906-1.3723-4.117-1.5343-13.09-1.5343-17.43 4.2391-19.769 4.1538-25.463 5.9943-42.246 4.025-12.344 3.8466-13.892 7.4684-22.981 2.1528-8.611 12.448-15.479 15.2-23.737 2.4198-7.2591 9.7586-19.933 9.7586-25.966 4.2347-20.969-9.288-21.075-23.424-28.843-9.2624-4.6312-17.411-8.7713-26.674-13.403-10.756-8.1438-25.904-14.911-35.293-19.732-6.8003 0.53677-56.968-12.084-101.78 9.5292-13.648 5.9734-17.879 9.0516-33.002 14.542-14.914 8.651-16.858 9.5814-26.745 15.057-11.67 3.3462-16.874 7.3873-25.079 12.635-20.263 10.272-30.235 15.537-51.429 28.471-12.631 5.807-19.902 8.2356-36.767 16.46-3.0419 2.2815-6.9697 4.9315-13.019 8.6793-15.186 6.8821-12.139 6.4768-18.833 10.202-24.838 11.386-26.176 11.428-36.06 17.479-9.6987 8.1536-18.767 12.796-32.092 20.942-17.095 12.644-29.131 20.283-43.205 27.32-5.9919 2.996-14.953 8.4439-19.528 13.019-9.1058 6.9322-16.463 11.988-23.868 17.359-3.1297 2.3473-6.9307 3.8057-10.214 5.9943-7.1358 4.2625-10.45 5.5484-15.824 10.405-9.832 4.7005-17.41 12.787-23.868 16.148-18.542 11.96-28.196 19.164-45.566 32.547-3.3881 3.3881-9.8032 7.7702-12.899 11.485-5.0859 6.1031-16.802 15.802-20.356 22.909-3.2996 7.8017-2.7828 5.3426-8.2243 15.392-6.0325 10.256-6.7743 9.4421-10.537 18.306l-10.909 27.38c-5.2364 10.843-9.0208 18.408-14.301 28.016-1.1948 2.3895-7.0152 15.533-7.8633 18.077-3.5279 10.584-6.5208 12.881-10.383 27.681-2.8061 8.53-1.1407 4.1425-5.167 19.671 0 0-2.2074 7.7692-7.2654 22.131-5.0331 11.577-11.234 21.353-15.178 35.293-4.6741 16.523-16.56 31.231-26.636 50.925-3.2414 6.3355-3.3203 7.2535-8.8824 15.693-4.4178 8.9346-7.9164 9.162-13.906 16.652-3.9271 3.9271-4.1225 7.9111-8.8711 11.868-14.502 12.085-27.649 27.126-42.629 38.361-6.4623 4.8467-14.337 9.8706-21.183 15.956-4.587 4.0774-7.7839 5.7646-12.444 9.7586-12.48 4.6266 0 0-28.855 12.444-1.0961 0.548-8.0462 6.1645-8.6079 7.2879-3.7923 7.5846 5.9878 24.084 8.7508 29.61 2.8477 5.6954 2.2776 22.562-0.0602 27.189-9.1945 18.197-0.78197 1.372-9.1945 18.197-3.033 6.066-5.1687 8.3355-8.1754 13.967-4.0837 7.6482-12.694 14.204-18.389 20.991-2.4974 2.9764-8.2681 11.039-8.7996 11.676-2.9044 3.7191-3.3559 4.6781-6.8931 9.83-6.8522 6.8522-6.1859 6.1743-9.1832 15.166-1.1404 3.4212 5.7242 23.196 6.581 24.91 1.2938 2.5877 3.8846 6.7125 3.8846 6.7125 6.3238 9.2642 9.2552 18.557 13.271 30.054l2.1698 13.019c3.5397 8.6256 5.2349 16.458 10.778 21.698 1.3318 3.9953 4.5933 9.0437 6.581 13.019 12.631 19.644 23.116 49.254 26.038 65.095 0.2111 1.0556 8.9955 20.744 9.4107 21.159 4.4482 5.9137 4.8148 10.461 23.868 17.359 5.8849 2.2069 12.667 3.4363 18.282 5.6822 7.6768 3.0707 15.308 6.5935 22.214 10.046 3.4245 1.7122 8.2633 4.2495 12.06 5.3343 11.298 4.1321 21.318 7.0678 25.463 7.9121 18.195 2.5993 40.883 2.6851 59.448 2.6851 9.8124 0 45.849-2.3233 52.747-5.0824 2.4213-0.9685 4.7595-0.6861 7.1808-1.6546 2.6862-1.0745 5.2634-1.7701 8.0081-2.685 4.9823-1.6608 10.145-3.6066 15.86-5.0353 5.361-1.3403 9.4219-3.0073 14.578-4.507 4.5359-1.3195 10.141-3.0826 13.918-4.1122 8.1898-2.2326 11.896-4.3333 20.776-7.8998l6.0892-2.4455c6.9042-3.9315 7.8438-4.6159 12.589-8.0052 4.6383-3.3131 14.873-7.6197 22.2-12.219 17.263-10.837 26.704-14.203 42.93-23.564 7.6107-4.3908 12.852-6.4754 19.608-11.542 12.518-6.5047 7.1753-4.5566 20.84-11.235 8.8147-6.7715 11.784-7.691 21.71-12.771 7.8756-4.0306 9.4082-3.7282 18.701-9.4951 20.88-13.23 31.753-20.116 41.905-26.513z" fill="none" stroke="#f00" stroke-width="2.2"/></a>
</svg>
