<?xml version="1.0" encoding="UTF-8" standalone="no"?>
<!-- Created with Inkscape (http://www.inkscape.org/) -->

<svg
   version="1.1"
   id="svg106"
   width="7512"
   height="4965"
   viewBox="0 0 7512 4965"
   sodipodi:docname="perro front 2.svg"
   inkscape:version="1.1 (c68e22c387, 2021-05-23)"
   xmlns:inkscape="http://www.inkscape.org/namespaces/inkscape"
   xmlns:sodipodi="http://sodipodi.sourceforge.net/DTD/sodipodi-0.dtd"
   xmlns:xlink="http://www.w3.org/1999/xlink"
   xmlns="http://www.w3.org/2000/svg"
   xmlns:svg="http://www.w3.org/2000/svg">
  <defs
     id="defs110" />
  <sodipodi:namedview
     id="namedview108"
     pagecolor="#505050"
     bordercolor="#ffffff"
     borderopacity="1"
     inkscape:pageshadow="0"
     inkscape:pageopacity="0"
     inkscape:pagecheckerboard="1"
     showgrid="false"
     inkscape:lockguides="false"
     inkscape:zoom="0.65176234"
     inkscape:cx="1419.9961"
     inkscape:cy="1130.0131"
     inkscape:window-width="1920"
     inkscape:window-height="1017"
     inkscape:window-x="-8"
     inkscape:window-y="-8"
     inkscape:window-maximized="1"
     inkscape:current-layer="g112" />
  <g
     inkscape:groupmode="layer"
     inkscape:label="Image"
     id="g112">
    <image
       width="7512"
       height="4965"
       preserveAspectRatio="none"
       xlink:href="perro%20front.jpg"
       id="image114" />
    <path
       style="fill:none;stroke:none;stroke-width:1px;stroke-linecap:butt;stroke-linejoin:miter;stroke-opacity:1"
       d="m 1294.9506,1475.9981 95.1267,-135.0185 h 3.0686 l 79.7836,-92.0581 c 0,0 30.6861,3.0686 67.5093,-55.2348 36.8233,-58.3035 -24.5488,-42.9605 -24.5488,-42.9605 l -58.3035,-12.2744 -15.343,-73.6465 30.686,12.2744 33.7547,-21.4802 c 0,0 -21.4802,-18.4116 12.2744,-3.0686 33.7546,15.343 95.1267,-9.2058 95.1267,-9.2058 l 39.8918,-52.16626 -3.0686,-39.89184 15.343,-18.41162 -3.0686,-30.68603 -18.4116,-18.41162 6.1372,-21.48023 c 0,0 -6.1372,12.27442 -46.029,-58.30346 -39.8919,-70.57787 33.3423,-145.43059 33.3423,-145.43059 l -2.1699,-26.03796 c 0,0 -47.7362,-32.54746 -70.5195,-37.97203 -22.7832,-5.42458 -41.2267,-17.35864 -41.2267,-17.35864 l -93.3027,26.03796 -174.6713,88.96304 -294.01203,184.43556 -73.77423,189.86012 -78.11388,139.9541 c 0,0 -74.85914,75.944 -105.23676,77.0289 -30.37763,1.0849 0,26.038 0,26.038"
       id="path342" />
    <path
       style="fill:none;stroke:#000000;stroke-width:1px;stroke-linecap:butt;stroke-linejoin:miter;stroke-opacity:1"
       d="m 1226.4287,1529.2556 c 6.7521,-5.6362 10.861,-8.0318 15.1888,-13.019 19.7975,-13.7158 40.7655,-31.9546 49.4314,-38.5823 7.4028,-8.2476 18.672,-17.1781 26.4448,-24.8174 13.5038,-15.7419 27.8892,-35.7061 36.4803,-51.1266 2.705,-4.2645 6.6564,-8.182 8.4081,-12.2053 0.8662,-1.9895 3.6778,-5.286 4.6109,-7.3232 2.6423,-5.7685 8.0976,-17.8618 11.9341,-21.6983 7.6719,-7.6719 14.2133,-19.6379 21.9695,-27.3941 9.1093,-9.1092 14.0386,-19.4632 24.1393,-29.5639 7.9669,-7.9669 16.7066,-16.9659 22.8406,-26.1668 1.1347,-1.7022 3.6517,-3.8415 4.915,-5.3466 5.153,-6.1397 4.5665,-5.4784 11.3521,-12.264 7.4554,-5.0463 15.4464,-10.844 25.6309,-17.5861 11.2078,-4.6381 19.9198,-11.1995 29.3585,-23.8682 2.8584,-4.2876 8.2329,-7.7523 10.4168,-12.1202 4.0633,-13.2378 6.0761,-14.9916 6.6899,-25.786 v -10.8492 c 0,-3.6734 -0.6941,-8.3301 -2.3015,-11.5448 -2.8608,-5.7216 -15.3655,-4.5966 -20.7393,-2.8053 -10.1839,14.1202 -28.9486,42.8185 -46.657,6.7125 -6.4995,-5.551 -4.3434,-8.3108 -4.8548,-8.8222 -3.9227,-3.9228 -2.8455,-10.8615 -4.1006,-14.6268 -3.1981,-13.5506 -2.458,-11.9171 -3.8003,-23.1591 -0.9704,-1.9408 -1.4235,-4.0674 -2.1097,-6.1259 -0.8568,-2.5703 -0.6866,-4.4532 -1.9066,-6.8931 -0.6913,-1.3825 -3.1406,-25.1874 -1.7862,-26.5418 2.1698,-2.1698 3.3093,-5.3701 5.4791,-7.5399 1.6164,-1.6164 5.6069,-5.919 6.8329,-7.1451 5.1444,-5.1444 9.793,6.5671 10.8491,8.6794 1.6173,3.2346 3.629,3.1851 6.1862,5.7423 2.2872,2.2872 3.3949,4.0907 5.6821,6.3779 1.5773,1.5772 6.4884,0.1728 7.2052,-1.9781 0.4574,-1.3723 5.8739,-9.9502 6.5208,-11.244 19.416,-48.4781 19.2097,-8.7173 62.5076,-12.2894 4.6891,-0.609 34.5074,-5.1637 39.7864,-7.8032 9.2802,-4.64 19.2974,-15.4761 26.3728,-18.3062 11.2936,-6.0769 26.133,-18.6713 24.7443,-29.6105 0.7232,-2.16982 3.5864,-6.52678 3.7041,-8.81093 0.6299,-12.21925 -6.1867,-15.17882 -3.6552,-25.3047 4.1916,-15.8208 5.0634,-9.97339 7.9234,-22.048 0.9612,-2.8836 2.7117,-28.97079 1.7261,-30.94169 -0.1344,-0.26875 1.1034,-4.51706 -3.0573,-10.66865 -2.8952,-4.28041 -5.3052,-8.80622 -10.0933,-13.59435 -1.3331,-1.33308 7.218,-20.99583 5.7649,-23.902 -5.9751,-11.95024 -1.122,-4.09912 -12.3459,-15.15494 -9.3105,-9.17108 -11.8502,-11.80137 -19.2539,-21.31473 -10.1498,-15.01819 -18.4563,-39.28995 -21.6983,-49.90609 -1.3723,-4.11696 -1.5343,-13.09044 -1.5343,-17.4301 4.2391,-19.76893 4.1538,-25.46271 5.9943,-42.24587 4.025,-12.34402 3.8466,-13.89179 7.4684,-22.98065 2.1528,-8.61105 12.4476,-15.47881 15.2001,-23.73652 2.4198,-7.25911 9.7586,-19.93323 9.7586,-25.9665 4.2347,-20.96885 -9.288,-21.07515 -23.4244,-28.84332 -9.2624,-4.63123 -17.411,-8.77132 -26.6735,-13.40255 -10.7558,-8.14383 -25.904,-14.91109 -35.2926,-19.73155 -6.8003,0.53677 -56.9677,-12.08423 -101.779,9.52922 -13.648,5.97335 -17.8794,9.0516 -33.0024,14.54199 -14.9137,8.65098 -16.8582,9.58143 -26.745,15.05718 -11.6697,3.34621 -16.8742,7.38733 -25.079,12.63541 -20.2626,10.2721 -30.2348,15.5371 -51.4291,28.47103 -12.6307,5.80703 -19.9024,8.23562 -36.7668,16.45987 -3.0419,2.28148 -6.9697,4.93154 -13.019,8.67933 -15.1861,6.88213 -12.1393,6.47684 -18.8328,10.20233 -24.838,11.38625 -26.1762,11.42758 -36.0598,17.47897 -9.6987,8.15358 -18.7668,12.79563 -32.0924,20.94244 -17.0947,12.64364 -29.1311,20.28349 -43.2048,27.32031 -5.9919,2.99595 -14.9533,8.44388 -19.5284,13.01898 -9.1058,6.93224 -16.463,11.98795 -23.8682,17.35864 -3.1297,2.3473 -6.9307,3.80569 -10.2136,5.99429 -7.1358,4.26247 -10.4496,5.54842 -15.8243,10.40541 -9.832,4.70054 -17.4102,12.78653 -23.8682,16.14775 -18.5417,11.95982 -28.1958,19.1638 -45.56639,32.54746 -3.38807,3.38806 -9.80322,7.77016 -12.89866,11.48468 -5.08589,6.10308 -16.80202,15.80166 -20.35579,22.90919 -3.29964,7.80171 -2.78279,5.34258 -8.22428,15.39189 -6.03248,10.2561 -6.7743,9.44212 -10.53703,18.30629 l -10.90932,27.38047 c -5.23643,10.84343 -9.02081,18.4076 -14.30133,28.016 -1.19477,2.38954 -7.01519,15.53261 -7.86329,18.07691 -3.52791,10.5837 -6.5208,12.8808 -10.38283,27.6813 -2.80607,8.53 -1.14069,4.1425 -5.16697,19.6714 0,0 -2.2074,7.7692 -7.26536,22.1308 -5.03309,11.5771 -11.23428,21.3532 -15.17751,35.2926 -4.67411,16.5231 -16.55983,31.2308 -26.63591,50.9252 -3.24137,6.3355 -3.32033,7.2535 -8.8824,15.6927 -4.41777,8.9346 -7.91644,9.162 -13.90647,16.6516 -3.9271,3.9271 -4.1225,7.9111 -8.87111,11.8683 -14.50203,12.0851 -27.64885,27.1258 -42.62945,38.3613 -6.46232,4.8467 -14.33717,9.8706 -21.1831,15.9559 -4.58701,4.0774 -7.78391,5.7646 -12.44362,9.7586 -12.47969,4.6266 0,0 -28.85461,12.4437 -1.09606,0.548 -8.04616,6.1645 -8.60786,7.2879 -3.7923,7.5846 5.98781,24.0845 8.75078,29.6104 2.8477,5.6954 2.2776,22.562 -0.0602,27.1888 -9.19452,18.1971 -0.78197,1.372 -9.19452,18.1971 -3.03296,6.066 -5.16866,8.3355 -8.17541,13.9667 -4.0837,7.6482 -12.69366,14.2035 -18.38905,20.9913 -2.4974,2.9764 -8.26809,11.0387 -8.79965,11.6765 -2.90435,3.7191 -3.35589,4.6781 -6.89306,9.83 -6.85218,6.8522 -6.18592,6.1743 -9.18323,15.1662 -1.14039,3.4212 5.72416,23.1963 6.58095,24.9099 1.29384,2.5877 3.88463,6.7125 3.88463,6.7125 6.32381,9.2642 9.25519,18.5566 13.27093,30.0543 l 2.16983,13.0189 c 3.53966,8.6256 5.23487,16.4585 10.7777,21.6984 1.33176,3.9953 4.59332,9.0437 6.58095,13.0189 12.63066,19.6445 23.11563,49.2541 26.03796,65.0949 0.2111,1.0556 8.9955,20.7435 9.41074,21.1587 4.44823,5.9137 4.81484,10.4611 23.86813,17.3586 5.88494,2.2069 12.66704,3.4363 18.28185,5.6822 7.67682,3.0707 15.30785,6.5935 22.2135,10.0463 3.42451,1.7122 8.26326,4.2495 12.06004,5.3343 11.29752,4.1321 21.31827,7.0678 25.4626,7.9121 18.19476,2.5993 40.88266,2.6851 59.44846,2.6851 9.8124,0 45.84948,-2.3233 52.74718,-5.0824 2.42129,-0.9685 4.75946,-0.6861 7.18075,-1.6546 2.68618,-1.0745 5.26342,-1.7701 8.00806,-2.685 4.98227,-1.6608 10.14502,-3.6066 15.86007,-5.0353 5.36097,-1.3403 9.42187,-3.0073 14.57773,-4.507 4.53591,-1.3195 10.14084,-3.0826 13.91775,-4.1122 8.18982,-2.2326 11.89562,-4.3333 20.77612,-7.8998 l 6.0892,-2.4455 c 6.9042,-3.9315 7.8438,-4.6159 12.5889,-8.0052 4.6383,-3.3131 14.8732,-7.6197 22.1998,-12.219 17.2633,-10.837 26.7042,-14.2028 42.9299,-23.5639 7.6107,-4.3908 12.8518,-6.4754 19.608,-11.5425 12.5182,-6.5047 7.1753,-4.5566 20.8401,-11.2348 8.8147,-6.7715 11.7837,-7.691 21.7099,-12.7709 7.8756,-4.0306 9.4082,-3.7282 18.7011,-9.4951 20.8803,-13.2299 31.7528,-20.1163 41.9049,-26.5126 z"
       id="path1385"
       sodipodi:nodetypes="cccccssssssscccccssccsccsssssssssccsccsccssssscccccsccccccccccccccsccccccscccccscccssccsssccssssssccssccccccccssccsssssssscsssccscc" />
  </g>
</svg>
